<svg width="192" height="128" viewBox="0 0 192 128" fill="none" xmlns="http://www.w3.org/2000/svg">
  <rect width="192" height="128" rx="28" fill="white" fill-opacity="0.08"/>
  <circle cx="54" cy="53" r="19" fill="white" fill-opacity="0.12"/>
  <circle cx="54" cy="53" r="10" fill="white" fill-opacity="0.34"/>
  <circle cx="84" cy="38" r="15" fill="white" fill-opacity="0.18"/>
  <circle cx="84" cy="38" r="7" fill="white" fill-opacity="0.38"/>
  <circle cx="125" cy="55" r="22" fill="white" fill-opacity="0.1"/>
  <circle cx="125" cy="55" r="11" fill="white" fill-opacity="0.31"/>
  <circle cx="151" cy="44" r="14" fill="white" fill-opacity="0.16"/>
  <circle cx="151" cy="44" r="6" fill="white" fill-opacity="0.36"/>
  <path d="M55 111C55 83 58 64 75 41" stroke="white" stroke-opacity="0.45" stroke-width="2.5" stroke-linecap="round"/>
  <path d="M92 111C91 82 94 60 115 38" stroke="white" stroke-opacity="0.42" stroke-width="2.5" stroke-linecap="round"/>
  <path d="M131 111C129 81 132 62 145 45" stroke="white" stroke-opacity="0.38" stroke-width="2.5" stroke-linecap="round"/>
  <path d="M46 94C65 91 76 82 82 67" stroke="white" stroke-opacity="0.24" stroke-width="7" stroke-linecap="round"/>
  <path d="M100 89C119 87 133 78 140 62" stroke="white" stroke-opacity="0.22" stroke-width="7" stroke-linecap="round"/>
  <path d="M20 116H172" stroke="white" stroke-opacity="0.14" stroke-width="8" stroke-linecap="round"/>
</svg>
